<svg xmlns="http://www.w3.org/2000/svg" viewBox="0 0 24 24" fill="none"><path d="M12 15.2a3.2 3.2 0 1 0 0-6.4 3.2 3.2 0 0 0 0 6.4Z" stroke="currentColor" stroke-width="2"/><path d="M19.4 13.4c.1-.45.1-.9.1-1.4s0-.95-.1-1.4l2-1.5-2-3.45-2.45 1a8.3 8.3 0 0 0-2.4-1.4L14.2 2h-4.4l-.35 3.25a8.3 8.3 0 0 0-2.4 1.4l-2.45-1-2 3.45 2 1.5c-.1.45-.1.9-.1 1.4s0 .95.1 1.4l-2 1.5 2 3.45 2.45-1a8.3 8.3 0 0 0 2.4 1.4L9.8 22h4.4l.35-3.25a8.3 8.3 0 0 0 2.4-1.4l2.45 1 2-3.45-2-1.5Z" stroke="currentColor" stroke-width="1.6" stroke-linejoin="round"/></svg>