<svg width="51" height="57" viewBox="0 0 51 57" fill="none" xmlns="http://www.w3.org/2000/svg">
<rect x="42.6963" width="10" height="58" transform="rotate(40.907 42.6963 0)" fill="#090000"/>
<path d="M5.13261 44.2356C5.11932 44.2573 5.10532 44.3118 5.08977 44.3652C5.07312 44.4224 5.06662 44.4787 5.05575 44.5361C5.04486 44.5936 5.03097 44.6482 5.01542 44.7016C4.99877 44.7588 4.99857 44.8205 4.99094 44.8807C4.98313 44.9424 4.9579 45.0023 4.91989 45.0945C4.89082 45.165 4.85378 45.2127 4.8288 45.2607C4.7977 45.3205 4.77298 45.3765 4.7447 45.4189C4.71325 45.466 4.69416 45.5253 4.67379 45.5745C4.65343 45.6238 4.62684 45.6674 4.59638 45.7217C4.56288 45.7814 4.53906 45.8585 4.51869 45.9077C4.49629 45.9619 4.47931 46.0238 4.45366 46.0823C4.42832 46.1401 4.4176 46.2041 4.39911 46.2577C4.37846 46.3176 4.35785 46.3694 4.33387 46.4294C4.31185 46.4845 4.28439 46.5506 4.26466 46.6088C4.24196 46.6759 4.21849 46.755 4.20056 46.8177C4.19256 46.8457 4.18816 46.8739 4.15274 46.9784C3.9982 47.4347 3.97047 47.4977 3.94751 47.5531C3.92188 47.6149 3.90791 47.6662 3.88069 47.7234C3.85519 47.7769 3.82491 47.8391 3.79508 47.9025C3.76639 47.9634 3.73994 48.027 3.70096 48.1075C3.65338 48.2057 3.62448 48.289 3.59993 48.3429C3.55538 48.4406 3.52552 48.5316 3.4957 48.5949C3.4647 48.6607 3.44098 48.7255 3.41644 48.7796C3.39025 48.8373 3.36889 48.8858 3.34852 48.9351C3.32612 48.9892 3.30914 49.0511 3.26912 49.1358C3.17374 49.3375 3.15113 49.4262 3.11995 49.4911C3.07846 49.5775 3.04937 49.6721 3.02415 49.7366C3.00255 49.7919 2.99006 49.8434 2.96969 49.8927C2.94933 49.9419 2.92904 49.9909 2.91659 50.047C2.90489 50.0998 2.87839 50.1585 2.86795 50.222C2.85846 50.2798 2.84318 50.334 2.82763 50.3874C2.81156 50.4426 2.80124 50.4981 2.79203 50.557C2.78345 50.6119 2.76883 50.6704 2.75984 50.7322C2.74979 50.8013 2.74484 50.8777 2.74088 50.9469C2.73741 51.0075 2.73194 51.0726 2.72755 51.1357C2.72236 51.2104 2.7244 51.2999 2.71698 51.3631C2.70721 51.4463 2.71362 51.5243 2.71391 51.5915C2.71417 51.6527 2.72608 51.7409 2.74027 51.8148C2.75156 51.8736 2.75467 51.933 2.75603 51.9926C2.75741 52.0528 2.77976 52.116 2.78623 52.1857C2.79195 52.2474 2.81326 52.3341 2.83295 52.4016C2.85062 52.4623 2.86793 52.5154 2.89092 52.566C2.91469 52.6184 2.93826 52.6655 2.97308 52.7152C3.02878 52.7947 3.15662 52.8937 3.24217 52.954C3.29576 52.9918 3.35735 53.0233 3.42672 53.0749C3.48308 53.1169 3.54882 53.1557 3.59805 53.1761C3.64729 53.1965 3.69634 53.2168 3.74557 53.2371C3.79481 53.2575 3.84386 53.2778 3.89309 53.2982C3.94875 53.3212 4.0229 53.3217 4.08317 53.3293C4.14344 53.337 4.20348 53.3446 4.26375 53.3522C4.3496 53.3631 4.46354 53.3528 4.56532 53.3411C4.84719 53.3088 5.06884 53.3095 5.14283 53.3013C5.20512 53.2944 5.26467 53.2955 5.40108 53.2888C5.53514 53.2822 5.61163 53.2678 5.67811 53.2585C5.73949 53.2499 5.8084 53.2269 5.8746 53.2117C5.94006 53.1966 5.99948 53.1863 6.05962 53.1716C6.12794 53.1548 6.19276 53.1367 6.35371 53.0984C6.43365 53.0794 6.49159 53.0617 6.55016 53.0455C6.61211 53.0285 6.69254 52.9966 6.80192 52.9635C7.00673 52.9014 7.05936 52.8689 7.14485 52.8345C7.22349 52.8029 7.3364 52.7419 7.41746 52.7062C7.55914 52.6437 7.62528 52.6078 7.80199 52.5416C7.88627 52.51 7.98706 52.4597 8.0611 52.426C8.14512 52.3877 8.22143 52.3565 8.29371 52.3213C8.35728 52.2904 8.4321 52.2548 8.49271 52.2266C8.55679 52.1967 8.63111 52.16 8.69172 52.1318C8.74249 52.1082 8.78624 52.0774 8.86985 52.0386C8.93404 52.0088 8.98116 51.968 9.03908 51.9429C9.1026 51.9154 9.1569 51.8808 9.21751 51.8526C9.27317 51.8267 9.34075 51.7843 9.3965 51.7489C9.46255 51.7069 9.61078 51.6519 9.71217 51.5965C9.78882 51.5547 9.89124 51.5152 9.93707 51.488C9.99424 51.4541 10.0973 51.3991 10.1652 51.3628C10.2362 51.3248 10.2984 51.2892 10.3572 51.2537C10.4091 51.2223 10.4733 51.1902 10.5273 51.1505C10.57 51.1191 10.624 51.0869 10.6772 51.0578C10.7363 51.0254 10.7956 50.9852 10.8528 50.9483C10.8974 50.9195 10.9377 50.8855 11.0134 50.8399C11.0779 50.801 11.1346 50.7612 11.18 50.728C11.2221 50.6972 11.262 50.6655 11.3136 50.6156C11.3626 50.5683 11.4216 50.5199 11.4726 50.4835C11.5569 50.4235 11.6116 50.3456 11.6683 50.2994C11.7372 50.2432 11.8246 50.151 11.89 50.0854C11.9556 50.0194 12.0475 49.9324 12.2497 49.7024C12.3174 49.6253 12.3352 49.5748 12.3772 49.5166C12.3873 49.5027 12.3918 49.4902 12.3911 49.4783C12.3869 49.4133 12.273 49.3645 12.2014 49.3248C12.1292 49.2848 11.9181 49.1847 11.7811 49.0971C11.699 49.0446 11.6319 48.9928 11.5737 48.9508C11.5284 48.9181 11.4818 48.8961 11.4394 48.8679C11.3822 48.8297 11.3035 48.7808 11.2521 48.7501C11.1832 48.7089 11.1186 48.6539 11.048 48.6067C10.9462 48.5384 10.8026 48.4469 10.6122 48.3235C10.4791 48.2373 10.332 48.1227 10.2488 48.0644C10.1658 48.0063 10.0866 47.9434 9.92998 47.8355C9.86401 47.79 9.78808 47.7292 9.62214 47.6077C9.50694 47.5233 9.33658 47.3824 9.23545 47.3033C9.11121 47.206 9.01794 47.1344 8.8883 47.0276C8.68888 46.8633 8.57922 46.7987 8.46246 46.7087C8.28812 46.5744 8.17613 46.4996 8.07166 46.4175C7.97687 46.343 7.87974 46.2761 7.67716 46.1091C7.50668 45.9684 7.28766 45.7965 7.20393 45.7324C7.09668 45.6503 6.94499 45.5441 6.81834 45.4484C6.68879 45.3506 6.5691 45.2575 6.38717 45.1083C6.28239 45.0223 6.18362 44.9569 6.05883 44.8572C5.93722 44.76 5.76323 44.626 5.714 44.6056C5.70164 44.6005 5.68947 44.5955 5.67596 44.5949C5.66245 44.5943 5.64798 44.5983 5.64251 44.6076C5.61376 44.6565 5.68566 44.7148 5.77611 44.8347C5.8069 44.8756 5.90442 44.9875 6.03419 45.1555C6.16498 45.3249 6.28702 45.4917 6.3477 45.5694C6.42297 45.6659 6.54257 45.7745 6.70998 45.9334C6.804 46.0227 6.97652 46.1672 7.07531 46.2556C7.1741 46.3439 7.19655 46.3689 7.39383 46.5426C7.59112 46.7164 7.96255 47.0382 8.16627 47.212C8.36999 47.3858 8.39475 47.4017 8.45158 47.4481C8.59872 47.5682 8.70896 47.6628 8.87391 47.7973C9.01943 47.916 9.28165 48.1478 9.4271 48.271C9.64941 48.4594 9.77421 48.5468 9.8689 48.6204C9.9344 48.6714 10.0069 48.715 10.0842 48.7736C10.1652 48.835 10.2365 48.8806 10.2932 48.9213C10.3739 48.9792 10.4629 49.0433 10.7491 49.2829C10.8569 49.3731 10.9119 49.399 10.9622 49.4341C11.007 49.4654 11.0607 49.4778 11.1526 49.5379C11.2121 49.5768 11.3053 49.6673 11.3473 49.7203C11.3894 49.7733 11.3731 49.7922 11.3562 49.8084C11.2985 49.8642 11.1482 49.9303 10.8751 50.0145C10.7853 50.0421 10.6904 50.0026 10.5762 49.9648C10.4459 49.9216 10.294 49.7931 10.1492 49.6649C10.041 49.5691 9.97016 49.4848 9.82196 49.3479C9.78451 49.3134 9.75923 49.2853 9.50461 49.0536C9.24999 48.8219 8.76713 48.387 8.30099 48.0131C7.83485 47.6393 7.40005 47.3397 7.16348 47.1745C6.89972 46.9903 6.81996 46.9276 6.72437 46.8615C6.66007 46.817 6.6151 46.778 6.52879 46.7116C6.36341 46.5843 6.24437 46.4735 6.10455 46.3607C5.9875 46.2663 5.7849 46.0866 5.67142 45.9855C5.5392 45.8678 5.44329 45.7739 5.32474 45.6602C5.28404 45.6211 5.29895 45.6048 5.31873 45.6106C5.42184 45.6407 5.46843 45.7676 5.52484 45.8639C5.56261 45.9283 5.60131 45.9942 5.63195 46.0485C5.64707 46.0753 5.66804 46.0966 5.95153 46.4029C6.23502 46.7092 6.78211 47.299 7.44387 47.8989C8.10562 48.4988 8.86547 49.0911 9.2972 49.4228C9.72893 49.7545 9.80951 49.8078 9.86518 49.8475C10.0066 49.9484 10.0975 50.0236 10.1918 50.0915C10.3543 50.2084 10.4122 50.2963 10.5399 50.4347C10.6048 50.5049 10.6326 50.5373 10.646 50.5572C10.651 50.5647 10.6355 50.5729 10.6222 50.5754C10.6089 50.5779 10.594 50.5761 10.4764 50.5239C10.3588 50.4717 10.1389 50.3694 9.83651 50.1914C9.53415 50.0134 9.15602 49.763 8.56346 49.2948C7.9709 48.8266 7.17537 48.1484 6.75159 47.7896C6.32782 47.4309 6.29991 47.4122 6.2572 47.378C6.15598 47.2971 6.06841 47.2228 5.86082 47.0513C5.68218 46.9037 5.36322 46.623 5.18817 46.4686C5.01312 46.3141 4.99381 46.2919 4.92406 46.2286C4.7371 46.059 4.61544 45.9694 4.62485 45.997C4.64577 46.0585 4.7138 46.1824 4.95638 46.4896C5.14248 46.7253 5.49463 47.0916 5.6826 47.2997C5.87058 47.5078 5.89345 47.5386 5.97418 47.6308C6.0549 47.7229 6.19277 47.8755 6.37942 48.0432C6.56607 48.2109 6.79732 48.3893 6.93334 48.4902C7.06936 48.5912 7.10314 48.6095 7.21057 48.6803C7.318 48.7512 7.49804 48.8741 7.60653 48.9511C7.71502 49.0281 7.7465 49.0554 7.96416 49.2026C8.18182 49.3499 8.58472 49.6163 8.91713 49.848C9.24954 50.0796 9.49925 50.2684 9.63398 50.3682C9.779 50.4756 9.80286 50.4864 9.81916 50.506C9.82769 50.5163 9.83001 50.532 9.83112 50.5469C9.83223 50.5618 9.83035 50.5767 9.81762 50.5852C9.75458 50.6274 9.69 50.5721 9.48929 50.4949C9.30708 50.4248 8.97089 50.2692 8.54944 50.0192C8.12799 49.7691 7.63381 49.4236 7.00015 48.9199C6.36648 48.4162 5.6083 47.7648 5.21007 47.4254C4.79912 47.0751 4.76541 47.0624 4.73748 47.0466C4.69133 47.0204 4.64447 46.9965 4.59524 46.9762C4.58289 46.9711 4.57071 46.966 4.55763 46.9713C4.54454 46.9766 4.5309 46.9923 4.52293 47.0079C4.49522 47.062 4.53834 47.1437 4.59296 47.2413C4.63855 47.3227 4.69213 47.3775 4.76889 47.4717C4.85033 47.5717 4.93728 47.64 5.07474 47.7729C5.15431 47.8499 5.30808 47.978 5.4091 48.06C5.63481 48.2432 5.76826 48.3323 5.89578 48.4288C5.9528 48.472 6.04688 48.5349 6.22372 48.6769C6.40057 48.8188 6.65826 49.0366 6.80182 49.1554C7.00712 49.3253 7.09925 49.3853 7.17034 49.4385C7.24164 49.4918 7.36886 49.5745 7.51965 49.68C7.70092 49.8068 7.8456 49.8927 7.89426 49.9293C7.96019 49.979 8.02429 50.0141 8.06979 50.048C8.1261 50.09 8.30917 50.1779 8.53703 50.3002C8.71398 50.3952 8.83109 50.4961 8.89055 50.5337C8.93539 50.5621 9.01588 50.6228 9.1325 50.7515C9.17213 50.7953 9.234 50.8452 9.2562 50.8754C9.27841 50.9057 9.26121 50.9128 9.23745 50.9146C9.10803 50.9244 8.98109 50.8318 8.8774 50.7782C8.67712 50.6746 8.50573 50.648 8.38227 50.6107C8.24244 50.5684 8.04411 50.5263 7.94965 50.4865C7.88757 50.4604 7.80621 50.415 7.55485 50.2113C7.49854 50.1657 7.47083 50.1468 6.9992 49.7713C6.52757 49.3958 5.61306 48.664 5.12957 48.2791C4.64608 47.8942 4.62132 47.8782 4.59125 47.855C4.47431 47.7647 4.33744 47.6546 4.23906 47.5833C4.22693 47.5745 4.217 47.567 4.20962 47.5689C4.20224 47.5707 4.19721 47.5829 4.20332 47.6077C4.21917 47.6721 4.25782 47.7248 4.28267 47.7602C4.30822 47.7965 4.35129 47.8669 4.62957 48.1799C4.86839 48.4485 5.3198 48.9269 5.67598 49.2783C6.03217 49.6297 6.28315 49.8361 6.58933 50.0627C6.89552 50.2892 7.24931 50.5296 7.44574 50.6657C7.64216 50.8019 7.67049 50.8264 7.76409 50.891C7.85769 50.9555 8.0157 51.0594 8.12773 51.1284C8.29812 51.2334 8.38893 51.2764 8.49496 51.3296C8.70787 51.4365 8.90668 51.5136 8.99801 51.5622C9.14354 51.6396 9.28911 51.7279 9.32231 51.751C9.37954 51.791 9.12087 51.7374 8.77623 51.578C8.64441 51.517 8.49307 51.3939 8.37054 51.3019C8.16152 51.145 8.05267 51.0296 8.00511 50.969C7.97819 50.9346 7.96638 50.9103 7.78843 50.7974C7.62033 50.6907 7.28168 50.5042 7.09057 50.398C6.89946 50.2918 6.86295 50.2767 6.72097 50.198C6.57898 50.1193 6.33263 49.9775 6.19628 49.8963C5.99156 49.7743 5.92221 49.7234 5.83233 49.654C5.77494 49.6097 5.71491 49.5772 5.62503 49.5078C5.56112 49.4584 5.48853 49.4145 5.41449 49.3588C5.35994 49.3177 5.25708 49.2584 5.15159 49.1838C4.96342 49.0509 4.79179 48.9277 4.70964 48.8649C4.61064 48.7893 4.52707 48.7317 4.41344 48.6417C4.38831 48.6218 4.37573 48.6173 4.36222 48.6167C4.34871 48.6161 4.33423 48.6201 4.32268 48.6269C4.31114 48.6336 4.30295 48.6431 4.2978 48.6554C4.27469 48.7105 4.31925 48.7908 4.35085 48.921C4.37709 49.0292 4.46625 49.1409 4.62251 49.3152C4.73059 49.4358 4.91957 49.6005 5.16503 49.7968C5.4105 49.9931 5.71246 50.2107 5.88019 50.3278C6.04792 50.4449 6.07226 50.455 6.2726 50.5678C6.47295 50.6806 6.84856 50.8958 7.04814 51.0092C7.3102 51.1581 7.43348 51.1778 7.49855 51.2119C7.60567 51.268 7.76879 51.3625 7.84221 51.4095C7.89226 51.4415 7.99657 51.5097 8.10421 51.6168C8.14146 51.6538 8.12267 51.6741 8.09844 51.6893C7.99934 51.7517 7.83154 51.7993 7.54767 51.8408C7.44833 51.8553 7.35645 51.8842 7.28361 51.9103C7.21614 51.9344 7.15293 51.9584 7.08521 51.9723C7.01667 51.9863 6.90431 51.9825 6.72236 51.8973C6.59927 51.8397 6.48383 51.7354 6.33037 51.6301C6.22574 51.5584 6.13473 51.483 6.0042 51.3837C5.83806 51.2574 5.72523 51.1394 5.62337 51.04C5.40235 50.8244 5.22123 50.6803 5.16168 50.6371C5.00647 50.5243 4.91831 50.4457 4.82551 50.3792C4.76426 50.3353 4.70997 50.2874 4.54182 50.1501C4.39632 50.0312 4.13718 49.8023 3.99766 49.6787C3.80462 49.5076 3.74555 49.4408 3.73065 49.4195C3.72327 49.409 3.71303 49.4014 3.69316 49.4145C3.58593 49.4852 3.57531 49.56 3.54067 49.6191C3.505 49.6801 3.49928 49.7503 3.49186 49.8135C3.48004 49.9142 3.50491 50.039 3.52118 50.12C3.53562 50.1919 3.56422 50.2851 3.59924 50.3576C3.62597 50.4128 3.666 50.4571 3.81014 50.5822C3.92873 50.6851 4.08709 50.7278 4.29315 50.8311C4.3659 50.8676 4.42861 50.9067 4.7179 51.0634C4.97266 51.2014 5.43862 51.4727 5.69185 51.6156C5.94508 51.7585 5.96942 51.7686 6.07922 51.8333C6.38548 52.0136 6.59613 52.1444 6.62066 52.1546C6.63301 52.1597 6.64518 52.1647 6.64579 52.1707C6.65053 52.2173 6.55268 52.2399 6.47495 52.2783C6.38646 52.3221 6.25144 52.2738 5.91398 52.1373C5.76828 52.0784 5.6252 51.982 5.49301 51.9121C5.33319 51.8275 5.24684 51.7434 5.14561 51.6641C5.09741 51.6263 5.01647 51.5661 4.90591 51.4758C4.79497 51.3853 4.70711 51.3315 4.59535 51.2595C4.19153 50.9992 4.11356 50.9952 4.05648 50.9708C3.99166 50.9431 3.89091 50.9246 3.778 50.9102C3.6751 50.8972 3.59073 50.8983 3.52411 50.9074C3.50777 50.9097 3.49021 50.9114 3.47431 50.9199C3.45841 50.9284 3.44478 50.9441 3.44111 50.9579C3.43461 50.9823 3.52957 51.1013 3.67839 51.2887C3.74502 51.3726 3.80853 51.4213 3.93031 51.502C4.05208 51.5827 4.23402 51.6907 4.35995 51.7633C4.54887 51.8721 4.64458 51.9231 4.7067 51.9603C4.77733 52.0026 4.85248 52.0364 4.95315 52.096C5.1249 52.1977 5.27383 52.2569 5.41314 52.3195C5.52009 52.3675 5.69661 52.4574 5.80044 52.5105C6.02649 52.6262 6.18645 52.7134 6.22904 52.7448C6.27353 52.7775 6.03616 52.7663 5.86243 52.7385C5.80468 52.7292 5.7061 52.6975 5.57567 52.6652C5.38264 52.6173 5.16003 52.5308 5.05966 52.4829C4.89539 52.4043 4.8229 52.4057 4.7315 52.3987C4.59626 52.3884 4.50679 52.4044 4.42854 52.4174C4.31541 52.4362 4.24784 52.4141 4.14093 52.3742C3.87494 52.2748 3.80641 52.2043 3.75005 52.1693C3.67237 52.1211 3.5674 52.075 3.46127 51.986C3.39277 51.9285 3.32942 51.7476 3.29109 51.6134C3.28454 51.5018 3.2934 51.4594 3.3004 51.4321C3.30236 51.4171 3.3011 51.3994 3.29853 51.3635" stroke="#090000" stroke-linecap="round"/>
<path d="M8.42578 53.0902C8.46484 53.0772 8.5561 53.0121 8.70977 52.9009C8.83422 52.8109 8.95528 52.7503 9.03712 52.6979C9.15286 52.6238 9.4314 52.4763 9.60941 52.3969C9.74611 52.3359 9.85139 52.3118 9.93667 52.3019C10.0164 52.2926 10.1065 52.2726 10.5209 52.2756C10.5984 52.2762 10.5913 52.3048 10.5847 52.3277C10.5576 52.4225 10.5324 52.501 10.4867 52.5991C10.4372 52.7054 10.3821 52.8084 10.3329 52.9099C10.295 52.9883 10.2773 53.0702 10.2771 53.2465C10.277 53.2868 10.2965 53.3057 10.3226 53.3254C10.4325 53.4085 10.5383 53.3975 10.7112 53.4205C11.0784 53.4693 11.1859 53.3716 11.3135 53.3389C11.4584 53.3018 11.5392 53.2213 11.6374 53.1624C11.7963 53.0672 11.9639 52.934 12.1538 52.7736C12.454 52.5201 12.5664 52.4822 12.8405 52.2733C12.9633 52.1797 13.0763 52.0704 13.2564 51.9229C13.3857 51.817 13.5669 51.6583 13.747 51.5108C13.8482 51.4279 14.0438 51.2987 14.3876 51.1086C14.5089 51.0415 14.6008 50.9906 14.6926 50.9478C14.8043 50.8957 14.9019 50.8988 15.0782 50.9018C15.1191 50.9025 15.1374 50.931 15.1506 50.9507C15.2015 51.0264 15.2096 51.1531 15.2423 51.2971C15.2901 51.5077 15.3077 51.6375 15.3209 52.1233C15.3254 52.29 15.3862 52.3636 15.4189 52.439C15.4572 52.5273 15.6017 52.534 15.8857 52.5342C16.0263 52.5343 16.112 52.4559 16.3765 52.3709C16.5806 52.3053 16.8641 52.2267 16.9822 52.2104C17.0797 52.1969 17.1718 52.2396 17.2571 52.2658C17.3718 52.301 17.5121 52.377 17.5907 52.426C17.6693 52.4883 17.7476 52.5144 17.8457 52.5373C17.872 52.5407 17.8979 52.5407 17.9246 52.5407" stroke="#3A3535" stroke-linecap="round"/>
</svg>
