<svg width="24" height="24" viewBox="0 0 24 24" fill="none"
     xmlns="http://www.w3.org/2000/svg">
  <path d="M12 5.5C16.5 5.5 19.4 9 20.5 12C19.4 15 16.5 18.5 12 18.5C7.5 18.5 4.6 15 3.5 12C4.6 9 7.5 5.5 12 5.5Z"
        stroke="white" stroke-width="2" stroke-linejoin="round"/>
  <path d="M12 15C13.66 15 15 13.66 15 12C15 10.34 13.66 9 12 9C10.34 9 9 10.34 9 12C9 13.66 10.34 15 12 15Z"
        stroke="white" stroke-width="2"/>
  <path d="M17 5L19 3L21 5"
        stroke="white" stroke-width="2" stroke-linecap="round" stroke-linejoin="round"/>
</svg>