<svg width="28" height="28" viewBox="0 0 24 24" fill="none" xmlns="http://www.w3.org/2000/svg">
  <path d="M2.5 12C4.5 8.5 7.8 6.5 12 6.5C16.2 6.5 19.5 8.5 21.5 12C19.5 15.5 16.2 17.5 12 17.5C7.8 17.5 4.5 15.5 2.5 12Z" stroke="#3C314D" stroke-width="1.7" stroke-linejoin="round"/>
  <circle cx="12" cy="12" r="2.4" stroke="#3C314D" stroke-width="1.7"/>
  <path d="M16.2 6.2C17.7 6.3 18.9 7.6 18.9 9.2C18.9 10.8 17.7 12 16.1 12H15.8V13.1H14.2V11.1C14.2 10.5 14.7 10 15.3 10H16C16.6 10 17 9.6 17 9C17 8.4 16.6 8 16 8H14.8C14.3 8 13.9 7.6 13.9 7.1C13.9 6.6 14.3 6.2 14.8 6.2H16.2Z" fill="#FF3B6B"/>
  <circle cx="15.1" cy="15.3" r="0.9" fill="#FF3B6B"/>
</svg>