<svg width="24" height="24" viewBox="0 0 24 24" fill="none"
     xmlns="http://www.w3.org/2000/svg">
  <path d="M12 3C7.03 3 3 6.58 3 11C3 13.3 4.09 15.37 5.84 16.83L5.25 20.25L8.98 18.48C9.93 18.82 10.95 19 12 19C16.97 19 21 15.42 21 11C21 6.58 16.97 3 12 3Z"
        stroke="white" stroke-width="2" stroke-linejoin="round"/>
  <path d="M12 13.2V12.8C12 11.5 13.2 11.05 13.9 10.45C14.45 9.98 14.75 9.48 14.75 8.8C14.75 7.55 13.68 6.7 12.25 6.7C10.9 6.7 9.95 7.42 9.55 8.55"
        stroke="white" stroke-width="2" stroke-linecap="round"/>
  <path d="M12 16.2H12.02" stroke="white" stroke-width="2.6" stroke-linecap="round"/>
</svg>