<svg width="28" height="28" viewBox="0 0 24 24" fill="none" xmlns="http://www.w3.org/2000/svg">
  <path d="M5.5 6.5H14.5C16.7 6.5 18.5 8.3 18.5 10.5V11.2C18.5 13.4 16.7 15.2 14.5 15.2H10.8L7.4 17.8L7.7 15.2H5.5C3.3 15.2 1.5 13.4 1.5 11.2V10.5C1.5 8.3 3.3 6.5 5.5 6.5Z" stroke="#3C314D" stroke-width="1.7" stroke-linejoin="round"/>
  <path d="M11.6 3.8V7.1" stroke="#FF3B6B" stroke-width="1.8" stroke-linecap="round"/>
  <path d="M9.95 5.45H13.25" stroke="#FF3B6B" stroke-width="1.8" stroke-linecap="round"/>
  <path d="M7.4 10.6C7.4 9.6 8.2 8.8 9.25 8.8H11.5C12.52 8.8 13.35 9.62 13.35 10.65C13.35 11.37 12.95 11.84 12.23 12.18C11.73 12.42 11.3 12.66 11.3 13.25V13.55" stroke="#3C314D" stroke-width="1.6" stroke-linecap="round"/>
  <circle cx="11.3" cy="15" r="0.8" fill="#3C314D"/>
</svg>